<svg width="375" height="358" viewBox="0 0 375 358" fill="none" xmlns="http://www.w3.org/2000/svg">
<g filter="url(#filter0_f_0_99)">
<rect x="346.151" y="284.579" width="198.535" height="116.143" transform="rotate(171.009 346.151 284.579)" fill="url(#paint0_linear_0_99)"/>
</g>
<rect x="121.911" y="188.545" width="218.541" height="138.248" rx="9.05556" transform="rotate(-8.78356 121.911 188.545)" fill="#18181B"/>
<mask id="mask0_0_99" style="mask-type:alpha" maskUnits="userSpaceOnUse" x="123" y="156" width="235" height="168">
<rect x="121.911" y="188.545" width="218.541" height="138.248" rx="9.05556" transform="rotate(-8.78356 121.911 188.545)" fill="white"/>
</mask>
<g mask="url(#mask0_0_99)">
<g opacity="0.18">
<line x1="119.127" y1="185.075" x2="311.61" y2="300.109" stroke="white" stroke-width="0.603704"/>
<line x1="116.329" y1="186.729" x2="308.812" y2="301.764" stroke="white" stroke-width="0.603704"/>
<line x1="113.531" y1="188.383" x2="306.013" y2="303.418" stroke="white" stroke-width="0.603704"/>
<line x1="110.731" y1="190.037" x2="303.214" y2="305.072" stroke="white" stroke-width="0.603704"/>
<line x1="107.933" y1="191.692" x2="300.415" y2="306.726" stroke="white" stroke-width="0.603704"/>
<line x1="105.133" y1="193.346" x2="297.616" y2="308.38" stroke="white" stroke-width="0.603704"/>
<line x1="102.336" y1="195" x2="294.818" y2="310.034" stroke="white" stroke-width="0.603704"/>
<line x1="99.5369" y1="196.654" x2="292.02" y2="311.689" stroke="white" stroke-width="0.603704"/>
<line x1="96.7377" y1="198.308" x2="289.22" y2="313.343" stroke="white" stroke-width="0.603704"/>
<line x1="93.939" y1="199.962" x2="286.422" y2="314.997" stroke="white" stroke-width="0.603704"/>
<line x1="91.1398" y1="201.617" x2="283.623" y2="316.651" stroke="white" stroke-width="0.603704"/>
<line x1="88.3416" y1="203.271" x2="280.824" y2="318.305" stroke="white" stroke-width="0.603704"/>
<line x1="85.5424" y1="204.925" x2="278.025" y2="319.959" stroke="white" stroke-width="0.603704"/>
<line x1="82.7441" y1="206.579" x2="275.227" y2="321.614" stroke="white" stroke-width="0.603704"/>
<line x1="79.9454" y1="208.234" x2="272.428" y2="323.268" stroke="white" stroke-width="0.603704"/>
<line x1="77.1462" y1="209.888" x2="269.629" y2="324.922" stroke="white" stroke-width="0.603704"/>
<line x1="74.3479" y1="211.542" x2="266.831" y2="326.576" stroke="white" stroke-width="0.603704"/>
<line x1="71.5487" y1="213.196" x2="264.031" y2="328.23" stroke="white" stroke-width="0.603704"/>
<line x1="68.75" y1="214.85" x2="261.233" y2="329.885" stroke="white" stroke-width="0.603704"/>
<line x1="65.9513" y1="216.504" x2="258.434" y2="331.539" stroke="white" stroke-width="0.603704"/>
<line x1="63.153" y1="218.159" x2="255.636" y2="333.193" stroke="white" stroke-width="0.603704"/>
<line x1="60.3543" y1="219.813" x2="252.837" y2="334.847" stroke="white" stroke-width="0.603704"/>
<line x1="57.5546" y1="221.467" x2="250.037" y2="336.501" stroke="white" stroke-width="0.603704"/>
<line x1="54.7564" y1="223.121" x2="247.239" y2="338.156" stroke="white" stroke-width="0.603704"/>
<line x1="51.9581" y1="224.775" x2="244.441" y2="339.81" stroke="white" stroke-width="0.603704"/>
<line x1="49.1589" y1="226.429" x2="241.642" y2="341.464" stroke="white" stroke-width="0.603704"/>
<line x1="46.3597" y1="228.084" x2="238.842" y2="343.118" stroke="white" stroke-width="0.603704"/>
<line x1="43.5615" y1="229.738" x2="236.044" y2="344.772" stroke="white" stroke-width="0.603704"/>
<line x1="40.7627" y1="231.392" x2="233.245" y2="346.426" stroke="white" stroke-width="0.603704"/>
<line x1="37.9644" y1="233.046" x2="230.447" y2="348.081" stroke="white" stroke-width="0.603704"/>
<line x1="35.1648" y1="234.7" x2="227.648" y2="349.735" stroke="white" stroke-width="0.603704"/>
<line x1="122.615" y1="183.925" x2="315.098" y2="298.959" stroke="white" stroke-width="0.603704"/>
<line x1="126.102" y1="182.775" x2="318.585" y2="297.81" stroke="white" stroke-width="0.603704"/>
<line x1="129.591" y1="181.626" x2="322.074" y2="296.66" stroke="white" stroke-width="0.603704"/>
<line x1="133.077" y1="180.476" x2="325.56" y2="295.51" stroke="white" stroke-width="0.603704"/>
<line x1="136.565" y1="179.326" x2="329.048" y2="294.361" stroke="white" stroke-width="0.603704"/>
<line x1="140.053" y1="178.176" x2="332.536" y2="293.211" stroke="white" stroke-width="0.603704"/>
<line x1="143.54" y1="177.027" x2="336.023" y2="292.061" stroke="white" stroke-width="0.603704"/>
<line x1="147.028" y1="175.877" x2="339.511" y2="290.911" stroke="white" stroke-width="0.603704"/>
<line x1="150.515" y1="174.727" x2="342.998" y2="289.762" stroke="white" stroke-width="0.603704"/>
<line x1="154.003" y1="173.577" x2="346.486" y2="288.612" stroke="white" stroke-width="0.603704"/>
<line x1="157.49" y1="172.428" x2="349.973" y2="287.462" stroke="white" stroke-width="0.603704"/>
<line x1="160.979" y1="171.278" x2="353.462" y2="286.312" stroke="white" stroke-width="0.603704"/>
<line x1="164.466" y1="170.128" x2="356.949" y2="285.163" stroke="white" stroke-width="0.603704"/>
<line x1="167.954" y1="168.978" x2="360.436" y2="284.013" stroke="white" stroke-width="0.603704"/>
<line x1="171.441" y1="167.829" x2="363.924" y2="282.863" stroke="white" stroke-width="0.603704"/>
<line x1="174.929" y1="166.679" x2="367.411" y2="281.713" stroke="white" stroke-width="0.603704"/>
<line x1="178.416" y1="165.529" x2="370.898" y2="280.564" stroke="white" stroke-width="0.603704"/>
<line x1="181.903" y1="164.38" x2="374.386" y2="279.414" stroke="white" stroke-width="0.603704"/>
<line x1="185.391" y1="163.23" x2="377.874" y2="278.264" stroke="white" stroke-width="0.603704"/>
<line x1="188.879" y1="162.08" x2="381.362" y2="277.114" stroke="white" stroke-width="0.603704"/>
<line x1="192.366" y1="160.93" x2="384.849" y2="275.965" stroke="white" stroke-width="0.603704"/>
<line x1="195.854" y1="159.781" x2="388.337" y2="274.815" stroke="white" stroke-width="0.603704"/>
<line x1="199.341" y1="158.631" x2="391.824" y2="273.665" stroke="white" stroke-width="0.603704"/>
</g>
<rect x="121.911" y="188.545" width="218.541" height="138.248" rx="9.05556" transform="rotate(-8.78356 121.911 188.545)" fill="url(#paint1_linear_0_99)"/>
<g filter="url(#filter1_f_0_99)">
<circle cx="131.973" cy="202.262" r="54.3334" transform="rotate(-8.78356 131.973 202.262)" fill="#B4C9FF"/>
</g>
<g filter="url(#filter2_f_0_99)">
<circle cx="349.677" cy="282.856" r="54.3334" transform="rotate(-8.78356 349.677 282.856)" fill="white"/>
</g>
</g>
<path d="M180.854 253.739L178.341 237.472C178.017 235.377 175.641 233.999 173.043 234.401L149.65 238.015C147.052 238.417 145.202 240.448 145.526 242.543L148.04 258.809C148.363 260.905 150.74 262.281 153.338 261.88L176.731 258.265C179.328 257.864 181.178 255.834 180.854 253.739ZM153.291 261.575C150.901 261.944 148.715 260.677 148.417 258.751L145.904 242.484C145.606 240.557 147.308 238.689 149.697 238.32L173.091 234.705C175.479 234.336 177.665 235.604 177.963 237.531L180.476 253.797C180.774 255.724 179.072 257.592 176.684 257.961L153.291 261.575Z" fill="#3F3F46"/>
<path d="M176.686 257.961L153.293 261.575C152.144 261.752 150.986 261.555 150.072 261.025C149.158 260.496 148.564 259.678 148.42 258.752L145.906 242.484C145.608 240.557 147.31 238.689 149.7 238.32L173.092 234.705C175.481 234.336 177.667 235.604 177.965 237.531L180.478 253.799C180.776 255.724 179.074 257.592 176.686 257.961Z" fill="url(#paint2_linear_0_99)"/>
<path d="M147.676 256.036L147.629 255.731L158.401 254.067C159.115 253.956 159.764 253.621 160.206 253.136C160.648 252.651 160.846 252.055 160.758 251.479L159.864 245.692C159.774 245.117 159.405 244.609 158.837 244.28C158.27 243.95 157.55 243.827 156.836 243.937L146.064 245.601L146.016 245.296L156.789 243.632C157.603 243.507 158.424 243.647 159.071 244.023C159.718 244.398 160.139 244.978 160.242 245.634L161.136 251.421C161.236 252.077 161.01 252.757 160.506 253.31C160.002 253.863 159.262 254.245 158.448 254.371L147.676 256.036Z" fill="#383335"/>
<path d="M167.39 250.454L166.496 244.668C166.396 244.011 166.622 243.331 167.126 242.778C167.63 242.225 168.37 241.843 169.184 241.717L178.752 240.238L178.799 240.543L169.231 242.022C168.518 242.133 167.868 242.467 167.426 242.952C166.985 243.437 166.786 244.033 166.874 244.609L167.768 250.396C167.858 250.971 168.227 251.48 168.795 251.809C169.363 252.138 170.083 252.261 170.797 252.151L180.364 250.673L180.411 250.978L170.844 252.456C170.029 252.581 169.209 252.441 168.561 252.065C167.914 251.69 167.493 251.111 167.39 250.454Z" fill="#383335"/>
<path d="M166.75 245.06L166.703 244.756L160.071 245.781L160.118 246.085L166.75 245.06Z" fill="#383335"/>
<path d="M167.561 250.307L167.514 250.002L160.882 251.027L160.929 251.332L167.561 250.307Z" fill="#383335"/>
<path d="M157.182 261.13L156.168 254.568L155.79 254.626L156.804 261.189L157.182 261.13Z" fill="#383335"/>
<path d="M154.556 244.133L153.542 237.57L153.164 237.629L154.178 244.192L154.556 244.133Z" fill="#383335"/>
<path d="M173.92 258.544L172.906 251.981L172.528 252.04L173.542 258.603L173.92 258.544Z" fill="#383335"/>
<path d="M171.294 241.547L170.28 234.984L169.902 235.042L170.916 241.605L171.294 241.547Z" fill="#383335"/>
<path d="M179.437 245.816L179.389 245.511L167.112 247.408L167.16 247.713L179.437 245.816Z" fill="#383335"/>
<path d="M160.408 248.756L160.361 248.451L146.824 250.543L146.871 250.848L160.408 248.756Z" fill="#383335"/>
<path d="M313.677 283.676L309.391 284.19L308.337 265.111L312.623 264.597L313.677 283.676ZM302.053 265.865L300.534 279.257L299.498 276.537L299.499 276.538L296.378 268.275C296.378 268.275 295.867 266.607 294.009 266.83L287.254 267.641L287.238 267.968C287.238 267.968 289.401 268.21 292.147 269.574L299.114 285.423L303.58 284.888L306.665 265.312L302.053 265.865ZM339.496 280.578L343.431 280.106L336.267 261.76L332.822 262.174C331.231 262.364 331.122 263.809 331.122 263.809L328.184 281.935L332.652 281.399L332.991 278.506L338.439 277.853L339.496 280.578ZM333.459 274.509L334.314 267.22L336.978 274.087L333.459 274.509ZM325.684 267.649L325.494 263.547C325.494 263.547 323.444 262.956 321.477 263.192C319.35 263.447 314.51 265.112 315.535 270.263C316.499 275.108 322.439 274.458 322.946 277.003C323.452 279.548 318.045 279.73 315.97 278.335L316.171 282.623C316.171 282.623 318.296 283.453 321.22 283.102C324.144 282.751 328.213 280.497 327.279 275.8C326.308 270.923 320.237 271.187 319.815 269.066C319.393 266.946 323.621 266.717 325.684 267.649Z" fill="white"/>
<path d="M299.098 277.066L296.454 269.725C296.454 269.725 296.042 268.238 294.141 268.531L287.236 269.598L287.199 269.896C287.199 269.896 290.624 270.071 294.206 272.156C297.631 274.149 299.098 277.066 299.098 277.066Z" fill="#E6A540"/>
<path d="M153.885 294.936L154.167 294.893C154.491 294.843 154.761 294.736 154.977 294.573C155.198 294.409 155.355 294.203 155.447 293.956C155.543 293.708 155.567 293.433 155.521 293.131L154.999 289.758L154.1 289.897L154.627 293.303C154.658 293.504 154.619 293.676 154.511 293.818C154.407 293.955 154.25 294.04 154.04 294.072L153.758 294.116L153.885 294.936ZM157.274 294.413L160.523 293.911L160.401 293.123L158.045 293.487L157.848 292.214L160.073 291.87L159.951 291.083L157.727 291.426L157.533 290.173L159.889 289.809L159.767 289.021L156.519 289.523L157.274 294.413ZM161.774 293.717L162.666 293.579L162.173 290.383L164.99 293.22L165.692 293.112L164.936 288.223L164.044 288.361L164.529 291.498L161.714 288.721L161.018 288.828L161.774 293.717ZM167.235 292.874L168.128 292.736L167.634 289.54L170.451 292.377L171.153 292.268L170.398 287.379L169.505 287.517L169.99 290.654L167.175 287.877L166.48 287.984L167.235 292.874ZM173.943 291.837L174.842 291.698L174.507 289.526L175.727 286.555L174.71 286.712L173.915 288.697L172.558 287.045L171.54 287.202L173.608 289.671L173.943 291.837ZM180.301 290.855L181.324 290.697L181.719 287.034L183.201 290.407L184.225 290.248L184.782 285.156L183.824 285.304L183.486 289.119L181.973 285.59L181.048 285.733L180.664 289.555L179.191 286.02L178.232 286.168L180.301 290.855ZM186.676 289.87L187.569 289.732L186.813 284.842L185.921 284.98L186.676 289.87ZM189.106 289.494L192.092 289.033L191.97 288.245L189.876 288.569L189.243 284.467L188.35 284.605L189.106 289.494ZM195.024 288.66C195.36 288.608 195.646 288.502 195.881 288.34C196.116 288.178 196.289 287.979 196.4 287.742C196.512 287.505 196.546 287.247 196.502 286.967C196.402 286.315 195.942 285.925 195.125 285.796L194.182 285.652C193.999 285.623 193.853 285.564 193.746 285.478C193.642 285.387 193.58 285.273 193.559 285.137C193.531 284.958 193.576 284.803 193.695 284.673C193.818 284.537 193.992 284.452 194.22 284.417C194.474 284.378 194.707 284.411 194.921 284.517C195.134 284.618 195.307 284.784 195.441 285.014L196.126 284.573C195.938 284.225 195.662 283.966 195.3 283.793C194.941 283.62 194.541 283.568 194.099 283.636C193.78 283.685 193.505 283.79 193.275 283.952C193.048 284.108 192.881 284.304 192.774 284.54C192.672 284.775 192.642 285.033 192.685 285.313C192.735 285.632 192.874 285.895 193.103 286.101C193.331 286.304 193.645 286.436 194.045 286.5L195.03 286.657C195.209 286.688 195.348 286.742 195.445 286.821C195.547 286.9 195.609 287.011 195.631 287.156C195.659 287.335 195.609 287.49 195.481 287.622C195.358 287.753 195.181 287.837 194.949 287.872C194.669 287.916 194.405 287.876 194.158 287.753C193.909 287.625 193.705 287.431 193.543 287.169L192.851 287.605C192.981 287.863 193.155 288.08 193.375 288.257C193.599 288.428 193.851 288.55 194.131 288.624C194.415 288.696 194.713 288.708 195.024 288.66ZM200.532 287.809C200.895 287.753 201.222 287.638 201.513 287.463C201.805 287.288 202.048 287.069 202.245 286.805C202.442 286.542 202.58 286.248 202.66 285.922C202.743 285.591 202.757 285.246 202.701 284.887C202.645 284.524 202.528 284.199 202.349 283.913C202.175 283.627 201.955 283.39 201.688 283.202C201.421 283.011 201.123 282.875 200.792 282.797C200.462 282.718 200.116 282.706 199.752 282.762C199.389 282.819 199.062 282.934 198.771 283.109C198.48 283.284 198.236 283.503 198.039 283.766C197.846 284.025 197.708 284.317 197.624 284.644C197.544 284.969 197.533 285.314 197.589 285.677C197.644 286.036 197.759 286.361 197.934 286.652C198.113 286.938 198.336 287.177 198.603 287.368C198.87 287.56 199.168 287.695 199.499 287.774C199.829 287.853 200.173 287.865 200.532 287.809ZM200.406 286.996C200.091 287.044 199.796 287.014 199.519 286.904C199.246 286.794 199.018 286.621 198.834 286.385C198.65 286.149 198.532 285.867 198.481 285.539C198.431 285.211 198.458 284.909 198.563 284.633C198.668 284.352 198.833 284.119 199.059 283.931C199.29 283.743 199.563 283.625 199.878 283.576C200.198 283.527 200.493 283.557 200.766 283.668C201.038 283.778 201.266 283.951 201.451 284.187C201.634 284.418 201.751 284.698 201.802 285.026C201.853 285.354 201.826 285.658 201.722 285.939C201.617 286.219 201.452 286.453 201.225 286.641C200.999 286.828 200.726 286.946 200.406 286.996ZM204.47 287.12L205.362 286.982L204.869 283.786L207.686 286.623L208.388 286.515L207.632 281.626L206.74 281.763L207.225 284.9L204.41 282.123L203.714 282.231L204.47 287.12Z" fill="white"/>
<path opacity="0.5" d="M158.254 306.559C158.604 306.505 158.908 306.398 159.165 306.237C159.427 306.076 159.639 305.884 159.802 305.662C159.964 305.435 160.069 305.199 160.116 304.955L159.257 304.704C159.199 304.964 159.073 305.192 158.879 305.388C158.689 305.578 158.439 305.698 158.128 305.746C157.822 305.793 157.542 305.762 157.287 305.654C157.033 305.545 156.821 305.374 156.65 305.141C156.479 304.903 156.367 304.613 156.315 304.272C156.262 303.931 156.282 303.623 156.374 303.349C156.465 303.071 156.616 302.843 156.826 302.668C157.036 302.487 157.294 302.374 157.6 302.326C157.911 302.278 158.186 302.319 158.425 302.447C158.668 302.571 158.857 302.748 158.991 302.978L159.734 302.48C159.615 302.261 159.444 302.07 159.222 301.908C158.999 301.741 158.738 301.62 158.44 301.545C158.146 301.469 157.824 301.458 157.474 301.513C157.124 301.567 156.81 301.68 156.532 301.853C156.254 302.021 156.023 302.236 155.839 302.498C155.655 302.755 155.525 303.048 155.451 303.377C155.376 303.703 155.366 304.047 155.422 304.41C155.478 304.773 155.592 305.1 155.762 305.392C155.932 305.68 156.144 305.92 156.398 306.114C156.652 306.307 156.937 306.445 157.254 306.526C157.571 306.602 157.904 306.613 158.254 306.559ZM164.044 305.665C164.408 305.609 164.735 305.493 165.026 305.318C165.317 305.143 165.561 304.924 165.757 304.661C165.954 304.397 166.092 304.103 166.172 303.777C166.255 303.446 166.269 303.101 166.214 302.742C166.157 302.379 166.04 302.055 165.862 301.769C165.687 301.482 165.467 301.245 165.201 301.058C164.934 300.866 164.635 300.731 164.305 300.652C163.975 300.573 163.628 300.562 163.265 300.618C162.902 300.674 162.574 300.789 162.283 300.964C161.992 301.139 161.748 301.358 161.552 301.622C161.359 301.88 161.22 302.172 161.136 302.499C161.057 302.825 161.045 303.169 161.101 303.532C161.157 303.891 161.272 304.216 161.447 304.507C161.625 304.793 161.848 305.032 162.115 305.224C162.382 305.415 162.681 305.551 163.011 305.629C163.341 305.708 163.686 305.72 164.044 305.665ZM163.919 304.851C163.604 304.9 163.308 304.869 163.031 304.76C162.759 304.649 162.53 304.476 162.346 304.24C162.162 304.005 162.044 303.723 161.994 303.394C161.943 303.066 161.97 302.764 162.075 302.488C162.18 302.208 162.345 301.974 162.572 301.787C162.803 301.599 163.075 301.48 163.39 301.432C163.71 301.382 164.006 301.413 164.278 301.523C164.55 301.633 164.779 301.806 164.963 302.042C165.147 302.273 165.264 302.553 165.314 302.881C165.365 303.21 165.338 303.514 165.234 303.794C165.129 304.075 164.964 304.309 164.737 304.496C164.511 304.683 164.238 304.801 163.919 304.851ZM167.982 304.976L169.577 304.729C170.093 304.649 170.525 304.475 170.874 304.206C171.226 303.937 171.479 303.602 171.632 303.202C171.786 302.802 171.825 302.364 171.752 301.887C171.677 301.405 171.507 300.999 171.241 300.669C170.974 300.334 170.634 300.093 170.222 299.946C169.809 299.795 169.342 299.759 168.821 299.84L167.227 300.086L167.982 304.976ZM168.753 304.05L168.241 300.736L168.963 300.624C169.295 300.573 169.592 300.596 169.854 300.695C170.12 300.793 170.34 300.956 170.514 301.184C170.688 301.408 170.8 301.689 170.852 302.026C170.905 302.363 170.882 302.666 170.785 302.937C170.692 303.206 170.534 303.428 170.31 303.601C170.086 303.775 169.807 303.887 169.475 303.939L168.753 304.05ZM173.437 304.133L176.685 303.631L176.564 302.843L174.208 303.207L174.011 301.934L176.236 301.59L176.114 300.803L173.889 301.147L173.696 299.893L176.052 299.529L175.93 298.741L172.681 299.243L173.437 304.133ZM179.694 303.246C180.031 303.194 180.317 303.088 180.552 302.926C180.787 302.764 180.96 302.565 181.071 302.328C181.182 302.092 181.216 301.833 181.173 301.553C181.072 300.901 180.613 300.511 179.796 300.382L178.853 300.238C178.67 300.209 178.524 300.15 178.416 300.064C178.313 299.973 178.25 299.859 178.229 299.723C178.202 299.544 178.247 299.389 178.366 299.259C178.488 299.123 178.663 299.038 178.891 299.003C179.145 298.964 179.378 298.997 179.592 299.103C179.805 299.204 179.978 299.37 180.112 299.6L180.796 299.159C180.608 298.811 180.333 298.552 179.97 298.379C179.612 298.206 179.212 298.154 178.77 298.222C178.451 298.271 178.176 298.377 177.945 298.538C177.719 298.694 177.552 298.89 177.445 299.126C177.342 299.361 177.313 299.619 177.356 299.899C177.405 300.218 177.545 300.481 177.774 300.687C178.002 300.89 178.316 301.023 178.716 301.086L179.701 301.243C179.88 301.274 180.018 301.328 180.116 301.407C180.218 301.486 180.28 301.597 180.302 301.742C180.33 301.921 180.28 302.076 180.152 302.208C180.029 302.339 179.852 302.423 179.62 302.458C179.34 302.502 179.076 302.462 178.828 302.339C178.58 302.211 178.376 302.017 178.214 301.755L177.522 302.191C177.652 302.449 177.826 302.666 178.046 302.843C178.27 303.014 178.522 303.137 178.802 303.21C179.086 303.282 179.384 303.294 179.694 303.246ZM184.545 302.416L186.606 302.098C187.153 302.013 187.559 301.816 187.825 301.506C188.094 301.191 188.193 300.8 188.121 300.332C188.086 300.109 188.01 299.905 187.892 299.722C187.774 299.539 187.595 299.394 187.355 299.288C187.471 299.144 187.549 298.993 187.587 298.835C187.63 298.676 187.638 298.514 187.612 298.347C187.546 297.919 187.356 297.603 187.043 297.401C186.729 297.198 186.332 297.134 185.851 297.209L183.79 297.527L184.545 302.416ZM184.976 299.286L184.8 298.15L186.014 297.963C186.198 297.934 186.352 297.962 186.477 298.046C186.602 298.129 186.678 298.257 186.704 298.427C186.731 298.598 186.698 298.746 186.605 298.873C186.512 298.995 186.373 299.07 186.19 299.098L184.976 299.286ZM185.316 301.491L185.096 300.067L186.356 299.872C186.588 299.836 186.782 299.873 186.938 299.984C187.098 300.089 187.194 300.251 187.228 300.47C187.261 300.684 187.218 300.868 187.098 301.021C186.982 301.168 186.808 301.26 186.576 301.296L185.316 301.491ZM190.664 301.471L191.563 301.332L191.227 299.16L192.448 296.189L191.431 296.346L190.636 298.331L189.278 296.679L188.261 296.836L190.329 299.305L190.664 301.471ZM195.893 300.663L196.175 300.619C196.498 300.569 196.769 300.463 196.985 300.299C197.206 300.135 197.363 299.93 197.454 299.683C197.551 299.435 197.575 299.16 197.529 298.858L197.007 295.485L196.108 295.624L196.635 299.03C196.666 299.231 196.627 299.403 196.519 299.545C196.415 299.682 196.258 299.767 196.048 299.799L195.766 299.843L195.893 300.663ZM200.194 299.998L201.218 299.84L201.613 296.177L203.095 299.55L204.119 299.392L204.676 294.3L203.718 294.448L203.38 298.263L201.867 294.734L200.942 294.877L200.558 298.699L199.085 295.164L198.126 295.312L200.194 299.998Z" fill="white"/>
<path d="M240.218 194.195L241.593 193.983L243.545 185.617L242.18 185.828L240.218 194.195Z" fill="#F43F5E"/>
<path d="M247.322 192.706L248.62 192.506L248.215 189.881L249.437 189.692L251.312 192.09L252.782 191.863L250.709 189.261C251.078 189.034 251.35 188.731 251.526 188.352C251.709 187.972 251.762 187.537 251.686 187.047C251.612 186.564 251.444 186.173 251.183 185.874C250.921 185.576 250.59 185.369 250.188 185.256C249.791 185.134 249.351 185.111 248.867 185.186L246.223 185.595L247.322 192.706ZM248.038 188.735L247.698 186.539L249.064 186.329C249.414 186.274 249.709 186.33 249.949 186.495C250.19 186.66 250.336 186.911 250.388 187.248C250.439 187.579 250.376 187.862 250.197 188.098C250.018 188.328 249.753 188.47 249.403 188.524L248.038 188.735ZM254.841 191.545L256.244 191.328L256.524 189.721L259.273 189.296L260.015 190.745L261.428 190.527L257.875 183.794L256.195 184.054L254.841 191.545ZM256.719 188.518L257.258 185.365L258.723 188.208L256.719 188.518ZM264.009 190.128L265.307 189.927L264.902 187.302L266.123 187.113L267.999 189.511L269.469 189.284L267.396 186.682C267.765 186.456 268.037 186.153 268.213 185.774C268.396 185.394 268.449 184.959 268.373 184.469C268.299 183.985 268.131 183.594 267.869 183.296C267.608 182.997 267.277 182.791 266.875 182.677C266.478 182.556 266.038 182.533 265.554 182.608L262.91 183.016L264.009 190.128ZM264.725 186.157L264.385 183.961L265.75 183.75C266.1 183.696 266.396 183.751 266.636 183.916C266.877 184.081 267.023 184.332 267.075 184.67C267.126 185 267.062 185.284 266.884 185.52C266.704 185.75 266.44 185.892 266.09 185.946L264.725 186.157ZM272.11 188.876L276.835 188.146L276.658 187.001L273.231 187.53L272.945 185.678L276.181 185.178L276.004 184.033L272.768 184.533L272.486 182.709L275.913 182.18L275.736 181.034L271.011 181.764L272.11 188.876ZM279.577 187.722L282.574 187.259C283.37 187.136 283.961 186.85 284.347 186.399C284.739 185.941 284.883 185.371 284.777 184.69C284.727 184.366 284.616 184.07 284.445 183.804C284.273 183.537 284.013 183.326 283.663 183.172C283.833 182.963 283.946 182.744 284.001 182.514C284.063 182.282 284.076 182.046 284.038 181.804C283.942 181.18 283.666 180.721 283.21 180.427C282.754 180.133 282.176 180.039 281.476 180.148L278.478 180.611L279.577 187.722ZM280.203 183.169L279.948 181.517L281.714 181.245C281.981 181.203 282.205 181.244 282.387 181.365C282.569 181.487 282.679 181.672 282.717 181.92C282.755 182.168 282.707 182.384 282.573 182.568C282.437 182.745 282.236 182.855 281.969 182.896L280.203 183.169ZM280.698 186.376L280.378 184.305L282.211 184.022C282.548 183.97 282.83 184.024 283.057 184.184C283.289 184.337 283.43 184.573 283.479 184.891C283.527 185.203 283.464 185.47 283.29 185.692C283.121 185.907 282.868 186.041 282.531 186.093L280.698 186.376ZM287.967 186.426L292.31 185.755L292.133 184.609L289.088 185.08L288.166 179.114L286.868 179.314L287.967 186.426ZM298.275 184.951C298.803 184.869 299.279 184.701 299.702 184.447C300.125 184.192 300.48 183.874 300.766 183.491C301.052 183.108 301.253 182.679 301.369 182.205C301.49 181.724 301.51 181.222 301.43 180.7C301.348 180.172 301.177 179.7 300.918 179.284C300.664 178.867 300.344 178.522 299.956 178.25C299.568 177.971 299.134 177.774 298.653 177.66C298.173 177.545 297.669 177.528 297.14 177.61C296.612 177.691 296.136 177.859 295.713 178.114C295.29 178.368 294.935 178.687 294.649 179.07C294.368 179.446 294.167 179.871 294.045 180.346C293.929 180.82 293.912 181.321 293.993 181.849C294.074 182.371 294.242 182.844 294.496 183.267C294.756 183.683 295.08 184.03 295.468 184.309C295.857 184.588 296.291 184.785 296.771 184.9C297.252 185.014 297.753 185.031 298.275 184.951ZM298.092 183.767C297.634 183.838 297.203 183.794 296.801 183.634C296.405 183.474 296.072 183.222 295.804 182.879C295.536 182.536 295.365 182.126 295.292 181.649C295.218 181.171 295.258 180.732 295.411 180.33C295.563 179.922 295.803 179.582 296.133 179.31C296.468 179.036 296.865 178.864 297.323 178.794C297.788 178.722 298.218 178.766 298.614 178.926C299.011 179.087 299.343 179.338 299.611 179.681C299.878 180.018 300.048 180.425 300.122 180.902C300.196 181.38 300.157 181.822 300.005 182.23C299.853 182.638 299.612 182.978 299.283 183.251C298.953 183.523 298.556 183.695 298.092 183.767ZM308.283 183.404C308.792 183.326 309.234 183.169 309.608 182.936C309.989 182.701 310.298 182.422 310.535 182.099C310.77 181.769 310.923 181.426 310.991 181.07L309.743 180.706C309.658 181.084 309.474 181.415 309.193 181.7C308.916 181.977 308.552 182.151 308.1 182.221C307.655 182.289 307.247 182.245 306.877 182.087C306.508 181.929 306.199 181.68 305.951 181.341C305.702 180.995 305.539 180.574 305.462 180.077C305.386 179.581 305.414 179.133 305.548 178.735C305.681 178.33 305.9 177.999 306.206 177.744C306.511 177.481 306.886 177.316 307.332 177.247C307.783 177.177 308.184 177.236 308.532 177.423C308.885 177.603 309.16 177.861 309.355 178.195L310.435 177.471C310.262 177.153 310.014 176.875 309.691 176.638C309.367 176.395 308.987 176.219 308.554 176.11C308.126 176 307.658 175.985 307.149 176.063C306.64 176.142 306.183 176.307 305.779 176.559C305.374 176.804 305.037 177.116 304.77 177.496C304.502 177.87 304.314 178.297 304.206 178.776C304.096 179.249 304.082 179.75 304.164 180.278C304.246 180.806 304.41 181.282 304.658 181.707C304.906 182.124 305.214 182.474 305.583 182.756C305.952 183.038 306.368 183.238 306.829 183.355C307.289 183.467 307.774 183.483 308.283 183.404ZM314.107 182.387L315.405 182.187L315.097 180.191L315.876 178.908L318.269 181.744L319.796 181.508L316.6 177.711L318.611 174.41L316.979 174.662L314.794 178.235L314.306 175.075L313.008 175.275L314.107 182.387ZM324.839 180.846C325.329 180.77 325.745 180.615 326.087 180.38C326.428 180.144 326.68 179.855 326.842 179.51C327.004 179.166 327.053 178.79 326.99 178.383C326.844 177.435 326.176 176.867 324.987 176.679L323.616 176.471C323.348 176.427 323.137 176.343 322.98 176.217C322.83 176.084 322.739 175.919 322.708 175.722C322.668 175.461 322.734 175.235 322.907 175.046C323.085 174.849 323.339 174.725 323.67 174.674C324.04 174.617 324.379 174.665 324.69 174.819C324.999 174.967 325.252 175.208 325.447 175.543L326.442 174.9C326.169 174.395 325.768 174.017 325.241 173.766C324.72 173.515 324.138 173.438 323.495 173.538C323.03 173.609 322.63 173.762 322.295 173.997C321.965 174.224 321.723 174.509 321.567 174.852C321.418 175.194 321.375 175.569 321.438 175.976C321.51 176.441 321.712 176.823 322.045 177.124C322.378 177.418 322.834 177.611 323.415 177.704L324.848 177.932C325.109 177.976 325.311 178.056 325.452 178.171C325.6 178.285 325.69 178.447 325.723 178.657C325.763 178.918 325.69 179.144 325.505 179.336C325.326 179.526 325.068 179.648 324.73 179.7C324.323 179.763 323.94 179.705 323.58 179.526C323.219 179.34 322.921 179.057 322.686 178.677L321.68 179.311C321.868 179.686 322.122 180.002 322.442 180.259C322.767 180.508 323.133 180.686 323.541 180.793C323.955 180.898 324.387 180.916 324.839 180.846Z" fill="white"/>
<g filter="url(#filter3_f_0_99)">
<rect x="68.8508" y="45.4852" width="202.192" height="112.512" transform="rotate(16.72 68.8508 45.4852)" fill="url(#paint3_linear_0_99)"/>
</g>
<g filter="url(#filter4_d_0_99)">
<rect x="58.7319" y="22.3813" width="234.79" height="148.527" rx="9.72887" transform="rotate(16.7205 58.7319 22.3813)" fill="white"/>
</g>
<mask id="mask1_0_99" style="mask-type:alpha" maskUnits="userSpaceOnUse" x="18" y="24" width="264" height="206">
<rect x="58.7319" y="22.3813" width="234.79" height="148.527" rx="9.72887" transform="rotate(16.7205 58.7319 22.3813)" fill="white"/>
</mask>
<g mask="url(#mask1_0_99)">
<g opacity="0.18">
<line x1="57.636" y1="17.7281" x2="191.066" y2="218.313" stroke="#18181B" stroke-width="0.648592"/>
<line x1="54.1569" y1="18.0374" x2="187.587" y2="218.623" stroke="#18181B" stroke-width="0.648592"/>
<line x1="50.6778" y1="18.3468" x2="184.107" y2="218.932" stroke="#18181B" stroke-width="0.648592"/>
<line x1="47.1991" y1="18.6562" x2="180.629" y2="219.241" stroke="#18181B" stroke-width="0.648592"/>
<line x1="43.72" y1="18.9655" x2="177.15" y2="219.551" stroke="#18181B" stroke-width="0.648592"/>
<line x1="40.2408" y1="19.2748" x2="173.67" y2="219.86" stroke="#18181B" stroke-width="0.648592"/>
<line x1="36.7613" y1="19.5843" x2="170.191" y2="220.169" stroke="#18181B" stroke-width="0.648592"/>
<line x1="33.2826" y1="19.8936" x2="166.712" y2="220.479" stroke="#18181B" stroke-width="0.648592"/>
<line x1="29.803" y1="20.2027" x2="163.233" y2="220.788" stroke="#18181B" stroke-width="0.648592"/>
<line x1="26.3243" y1="20.512" x2="159.754" y2="221.097" stroke="#18181B" stroke-width="0.648592"/>
<line x1="22.8447" y1="20.8215" x2="156.274" y2="221.407" stroke="#18181B" stroke-width="0.648592"/>
<line x1="19.3665" y1="21.1308" x2="152.796" y2="221.716" stroke="#18181B" stroke-width="0.648592"/>
<line x1="15.887" y1="21.4401" x2="149.317" y2="222.025" stroke="#18181B" stroke-width="0.648592"/>
<line x1="12.4078" y1="21.7494" x2="145.837" y2="222.335" stroke="#18181B" stroke-width="0.648592"/>
<line x1="8.92864" y1="22.0589" x2="142.358" y2="222.644" stroke="#18181B" stroke-width="0.648592"/>
<line x1="5.45001" y1="22.3682" x2="138.88" y2="222.953" stroke="#18181B" stroke-width="0.648592"/>
<line x1="1.97088" y1="22.6773" x2="135.401" y2="223.263" stroke="#18181B" stroke-width="0.648592"/>
<line x1="-1.50825" y1="22.9866" x2="131.921" y2="223.572" stroke="#18181B" stroke-width="0.648592"/>
<line x1="-4.98737" y1="23.296" x2="128.442" y2="223.881" stroke="#18181B" stroke-width="0.648592"/>
<line x1="-8.46607" y1="23.6054" x2="124.964" y2="224.191" stroke="#18181B" stroke-width="0.648592"/>
<line x1="-11.9452" y1="23.9147" x2="121.484" y2="224.5" stroke="#18181B" stroke-width="0.648592"/>
<line x1="-15.4243" y1="24.224" x2="118.005" y2="224.809" stroke="#18181B" stroke-width="0.648592"/>
<line x1="-18.9034" y1="24.5335" x2="114.526" y2="225.119" stroke="#18181B" stroke-width="0.648592"/>
<line x1="-22.3821" y1="24.8428" x2="111.047" y2="225.428" stroke="#18181B" stroke-width="0.648592"/>
<line x1="-25.8613" y1="25.152" x2="107.568" y2="225.737" stroke="#18181B" stroke-width="0.648592"/>
<line x1="-29.3408" y1="25.4612" x2="104.089" y2="226.046" stroke="#18181B" stroke-width="0.648592"/>
<line x1="-32.82" y1="25.7708" x2="100.61" y2="226.356" stroke="#18181B" stroke-width="0.648592"/>
<line x1="-36.2982" y1="26.08" x2="97.1315" y2="226.665" stroke="#18181B" stroke-width="0.648592"/>
<line x1="-39.7773" y1="26.3893" x2="93.6523" y2="226.975" stroke="#18181B" stroke-width="0.648592"/>
<line x1="-43.2569" y1="26.6986" x2="90.1727" y2="227.284" stroke="#18181B" stroke-width="0.648592"/>
<line x1="-46.7351" y1="27.0081" x2="86.6945" y2="227.593" stroke="#18181B" stroke-width="0.648592"/>
<line x1="61.5496" y1="18.2266" x2="194.979" y2="218.812" stroke="#18181B" stroke-width="0.648592"/>
<line x1="65.4627" y1="18.7251" x2="198.892" y2="219.31" stroke="#18181B" stroke-width="0.648592"/>
<line x1="69.3767" y1="19.2237" x2="202.806" y2="219.809" stroke="#18181B" stroke-width="0.648592"/>
<line x1="73.2903" y1="19.722" x2="206.72" y2="220.307" stroke="#18181B" stroke-width="0.648592"/>
<line x1="77.2034" y1="20.2204" x2="210.633" y2="220.806" stroke="#18181B" stroke-width="0.648592"/>
<line x1="81.1174" y1="20.7188" x2="214.547" y2="221.304" stroke="#18181B" stroke-width="0.648592"/>
<line x1="85.031" y1="21.2173" x2="218.461" y2="221.803" stroke="#18181B" stroke-width="0.648592"/>
<line x1="88.9441" y1="21.7157" x2="222.374" y2="222.301" stroke="#18181B" stroke-width="0.648592"/>
<line x1="92.8581" y1="22.2142" x2="226.288" y2="222.799" stroke="#18181B" stroke-width="0.648592"/>
<line x1="96.7717" y1="22.7126" x2="230.201" y2="223.298" stroke="#18181B" stroke-width="0.648592"/>
<line x1="100.685" y1="23.211" x2="234.115" y2="223.796" stroke="#18181B" stroke-width="0.648592"/>
<line x1="104.599" y1="23.7095" x2="238.029" y2="224.295" stroke="#18181B" stroke-width="0.648592"/>
<line x1="108.513" y1="24.2079" x2="241.943" y2="224.793" stroke="#18181B" stroke-width="0.648592"/>
<line x1="112.426" y1="24.7064" x2="245.856" y2="225.292" stroke="#18181B" stroke-width="0.648592"/>
<line x1="116.34" y1="25.2049" x2="249.77" y2="225.79" stroke="#18181B" stroke-width="0.648592"/>
<line x1="120.254" y1="25.7032" x2="253.683" y2="226.288" stroke="#18181B" stroke-width="0.648592"/>
<line x1="124.167" y1="26.2016" x2="257.596" y2="226.787" stroke="#18181B" stroke-width="0.648592"/>
<line x1="128.081" y1="26.7002" x2="261.51" y2="227.285" stroke="#18181B" stroke-width="0.648592"/>
<line x1="131.995" y1="27.1986" x2="265.424" y2="227.784" stroke="#18181B" stroke-width="0.648592"/>
<line x1="135.907" y1="27.6971" x2="269.337" y2="228.282" stroke="#18181B" stroke-width="0.648592"/>
<line x1="139.821" y1="28.1955" x2="273.251" y2="228.781" stroke="#18181B" stroke-width="0.648592"/>
<line x1="143.735" y1="28.6938" x2="277.165" y2="229.279" stroke="#18181B" stroke-width="0.648592"/>
<line x1="147.649" y1="29.1923" x2="281.079" y2="229.777" stroke="#18181B" stroke-width="0.648592"/>
</g>
<rect x="58.7319" y="22.3813" width="234.79" height="148.527" rx="9.72887" transform="rotate(16.7205 58.7319 22.3813)" fill="url(#paint4_linear_0_99)"/>
<g filter="url(#filter5_f_0_99)">
<circle cx="62.1413" cy="40.3363" r="58.3732" transform="rotate(16.7205 62.1413 40.3363)" fill="#D2D2D2"/>
</g>
<g filter="url(#filter6_f_0_99)">
<circle cx="235.96" cy="219.193" r="58.3732" transform="rotate(16.7205 235.96 219.193)" fill="#C8C8C8"/>
</g>
</g>
<path d="M85.7282 112.864L90.8158 95.9282C91.4711 93.7466 89.8048 91.3116 87.1004 90.4992L62.7449 83.1827C60.0399 82.3701 57.3067 83.484 56.6515 85.6651L51.5639 102.601C50.9086 104.782 52.5765 107.217 55.2809 108.029L79.6364 115.346C82.3409 116.158 85.073 115.045 85.7282 112.864ZM55.3762 107.712C52.8882 106.965 51.3548 104.725 51.9573 102.719L57.0448 85.7833C57.6476 83.7767 60.1616 82.7525 62.6496 83.4999L87.0051 90.8164C89.4918 91.5635 91.0252 93.8035 90.4224 95.81L85.3349 112.746C84.7324 114.751 82.2184 115.775 79.7317 115.028L55.3762 107.712Z" fill="#3F3F46"/>
<path d="M79.7323 115.029L55.3771 107.712C54.1813 107.353 53.1495 106.625 52.5084 105.689C51.8673 104.753 51.6692 103.686 51.9578 102.721L57.0458 85.7838C57.6486 83.7772 60.1625 82.7531 62.6505 83.5005L87.0057 90.8169C89.4924 91.5639 91.0258 93.8039 90.423 95.8105L85.3351 112.747C84.733 114.752 82.219 115.776 79.7323 115.029Z" fill="url(#paint5_linear_0_99)"/>
<path d="M52.4934 99.7428L52.5887 99.4256L63.8041 102.795C64.5476 103.017 65.3317 102.993 65.9846 102.727C66.6375 102.461 67.1058 101.975 67.2867 101.376L69.0965 95.3514C69.2757 94.7517 69.1527 94.0882 68.7545 93.5065C68.3563 92.9247 67.7154 92.4723 66.9723 92.2483L55.7569 88.8792L55.8523 88.5617L67.0677 91.9308C67.915 92.1862 68.6459 92.7023 69.1 93.3657C69.554 94.0291 69.6943 94.7857 69.4898 95.4695L67.68 101.494C67.4738 102.177 66.9398 102.731 66.1953 103.035C65.4508 103.338 64.5566 103.366 63.7088 103.112L52.4934 99.7428Z" fill="#383335"/>
<path d="M74.1912 103.45L76.001 97.4257C76.2073 96.7424 76.7413 96.1883 77.4859 95.885C78.2305 95.5816 79.1248 95.5539 79.9726 95.8077L89.9335 98.8L89.8382 99.1175L79.8773 96.1252C79.1338 95.9025 78.3495 95.9269 77.6966 96.1928C77.0436 96.4588 76.5753 96.9447 76.3944 97.5439L74.5846 103.568C74.4054 104.168 74.5285 104.832 74.9268 105.413C75.325 105.995 75.966 106.448 76.7091 106.672L86.67 109.664L86.5747 109.981L76.6138 106.989C75.7664 106.734 75.0354 106.218 74.5812 105.554C74.1271 104.891 73.9868 104.134 74.1912 103.45Z" fill="#383335"/>
<path d="M76.0659 97.9242L76.1612 97.6069L69.2564 95.5327L69.1611 95.8499L76.0659 97.9242Z" fill="#383335"/>
<path d="M74.4254 103.387L74.5207 103.069L67.6159 100.995L67.5206 101.312L74.4254 103.387Z" fill="#383335"/>
<path d="M59.3543 109.08L61.4069 102.248L61.0135 102.129L58.9609 108.962L59.3543 109.08Z" fill="#383335"/>
<path d="M64.671 91.3839L66.7237 84.5508L66.3304 84.4327L64.2777 91.2657L64.671 91.3839Z" fill="#383335"/>
<path d="M76.7814 114.315L78.834 107.483L78.4406 107.364L76.388 114.197L76.7814 114.315Z" fill="#383335"/>
<path d="M82.0972 96.6189L84.1499 89.7859L83.7566 89.6677L81.7039 96.5008L82.0972 96.6189Z" fill="#383335"/>
<path d="M88.0188 104.525L88.1141 104.208L75.332 100.368L75.2367 100.686L88.0188 104.525Z" fill="#383335"/>
<path d="M68.2073 98.5737L68.3026 98.2564L54.2091 94.0227L54.1138 94.3399L68.2073 98.5737Z" fill="#383335"/>
<path d="M199.645 203.797L195.237 202.659L205.08 183.096L209.488 184.234L199.645 203.797ZM198.617 181.427L189.54 194.288L190.093 191.156L190.093 191.157L191.797 181.657C191.797 181.657 192.256 179.785 190.344 179.292L183.397 177.498L183.196 177.821C183.196 177.821 185.135 178.898 186.996 181.328L184.668 199.931L189.26 201.117L203.361 182.652L198.617 181.427ZM226.198 210.652L230.245 211.696L233.804 190.51L230.261 189.596C228.625 189.173 227.698 190.581 227.698 190.581L214.565 207.648L219.16 208.835L221.131 206.06L226.735 207.507L226.198 210.652ZM223.855 202.228L228.823 195.238L227.474 203.162L223.855 202.228ZM220.293 192.338L222.444 188.147C222.444 188.147 220.812 186.762 218.789 186.24C216.601 185.675 211.007 185.479 209.061 191.046C207.23 196.284 213.303 197.923 212.341 200.674C211.38 203.425 206.084 201.521 204.886 199.32L202.639 203.703C202.639 203.703 204.207 205.356 207.214 206.132C210.222 206.909 215.411 206.215 217.186 201.139C219.029 195.867 213.049 193.788 213.85 191.497C214.652 189.204 218.842 190.607 220.293 192.338Z" fill="#2566AF"/>
<path d="M189.593 190.181L190.425 181.84C190.425 181.84 190.713 180.207 188.735 179.612L181.545 177.453L181.372 177.724C181.372 177.724 184.612 179.478 187.121 183.157C189.52 186.674 189.593 190.181 189.593 190.181Z" fill="#E6A540"/>
<path d="M40.6272 140.791L44.0094 141.807L44.2558 140.987L41.8028 140.25L42.201 138.925L44.5173 139.621L44.7636 138.801L42.4473 138.105L42.8393 136.8L45.2923 137.537L45.5387 136.717L42.1564 135.701L40.6272 140.791ZM47.1049 142.826C47.4557 142.932 47.7823 142.96 48.0849 142.912C48.3874 142.864 48.6473 142.751 48.8647 142.573C49.0821 142.395 49.2345 142.16 49.3221 141.869C49.526 141.19 49.2615 140.599 48.5287 140.096L47.6809 139.521C47.5165 139.407 47.4022 139.283 47.338 139.149C47.2797 139.013 47.2718 138.874 47.3142 138.733C47.3703 138.546 47.4861 138.417 47.6615 138.345C47.8428 138.271 48.052 138.269 48.2888 138.34C48.553 138.419 48.7641 138.56 48.9221 138.761C49.0815 138.958 49.173 139.199 49.1966 139.484L50.0645 139.372C50.0428 138.949 49.896 138.569 49.6242 138.235C49.3569 137.901 48.9932 137.665 48.5331 137.527C48.2006 137.427 47.8853 137.402 47.5873 137.451C47.2953 137.498 47.0429 137.611 46.83 137.79C46.6218 137.971 46.4739 138.207 46.3863 138.498C46.2864 138.831 46.2997 139.15 46.4262 139.457C46.5542 139.758 46.7971 140.032 47.1551 140.279L48.0378 140.887C48.1976 140.999 48.3065 141.116 48.3643 141.238C48.4267 141.361 48.4353 141.498 48.3901 141.648C48.334 141.835 48.2137 141.963 48.0291 142.031C47.8492 142.101 47.6385 142.1 47.397 142.028C47.1055 141.94 46.8682 141.779 46.6851 141.546C46.5035 141.307 46.3949 141.024 46.3595 140.695L45.4868 140.798C45.4931 141.108 45.562 141.399 45.6935 141.672C45.831 141.942 46.0186 142.177 46.2564 142.378C46.4987 142.58 46.7815 142.729 47.1049 142.826ZM51.2591 143.985L52.1952 144.266L53.4781 139.996L54.7764 140.386L55.0227 139.566L51.4696 138.498L51.2233 139.318L52.542 139.714L51.2591 143.985ZM54.6817 145.013L55.611 145.292L56.2268 143.242L58.3928 143.893L57.777 145.943L58.7131 146.224L60.2423 141.134L59.3062 140.853L58.6391 143.073L56.4731 142.423L57.1402 140.202L56.2109 139.923L54.6817 145.013ZM60.3141 146.705L63.6964 147.721L63.9427 146.901L61.4897 146.164L61.8879 144.839L64.2042 145.535L64.4506 144.715L62.1342 144.019L62.5263 142.714L64.9793 143.451L65.2256 142.631L61.8433 141.615L60.3141 146.705ZM64.999 148.113L65.9282 148.392L66.4927 146.513L67.3673 146.775L67.8551 148.971L68.9074 149.287L68.3527 146.893C68.6707 146.859 68.9486 146.744 69.1865 146.547C69.4289 146.352 69.6028 146.079 69.7082 145.728C69.8122 145.382 69.8246 145.068 69.7455 144.786C69.6663 144.504 69.5108 144.261 69.279 144.057C69.0531 143.85 68.7671 143.695 68.4209 143.591L66.5282 143.022L64.999 148.113ZM66.739 145.693L67.2111 144.121L68.1882 144.415C68.4388 144.49 68.618 144.621 68.7259 144.807C68.8338 144.993 68.8515 145.207 68.7789 145.449C68.7078 145.686 68.5751 145.854 68.381 145.955C68.1883 146.051 67.9666 146.061 67.7161 145.986L66.739 145.693ZM71.9732 150.208L72.9024 150.487L73.5182 148.437L75.6842 149.088L75.0684 151.137L76.0045 151.419L77.5337 146.328L76.5976 146.047L75.9305 148.268L73.7645 147.617L74.4316 145.396L73.5024 145.117L71.9732 150.208ZM80.0886 152.735C80.4666 152.848 80.8372 152.888 81.2003 152.853C81.5634 152.818 81.9013 152.718 82.2139 152.554C82.5265 152.39 82.7967 152.168 83.0246 151.889C83.2584 151.606 83.4314 151.278 83.5436 150.905C83.6572 150.527 83.6936 150.158 83.6527 149.798C83.6164 149.439 83.5124 149.108 83.3408 148.803C83.1705 148.493 82.9435 148.224 82.6598 147.995C82.376 147.765 82.0451 147.594 81.667 147.48C81.2889 147.367 80.9183 147.328 80.5552 147.362C80.1921 147.397 79.8543 147.497 79.5417 147.661C79.235 147.823 78.9655 148.042 78.733 148.32C78.5051 148.599 78.3344 148.928 78.2208 149.306C78.1086 149.679 78.07 150.048 78.1049 150.411C78.1458 150.771 78.2514 151.105 78.4216 151.415C78.5919 151.724 78.8189 151.993 79.1027 152.223C79.3864 152.452 79.715 152.623 80.0886 152.735ZM80.3431 151.888C80.0151 151.789 79.7423 151.623 79.5246 151.388C79.3115 151.156 79.1701 150.882 79.1005 150.568C79.0309 150.254 79.0475 149.927 79.1501 149.585C79.2527 149.243 79.4189 148.963 79.6486 148.744C79.8796 148.52 80.1483 148.37 80.4544 148.293C80.7652 148.218 81.0845 148.229 81.4125 148.328C81.745 148.428 82.0179 148.594 82.231 148.827C82.4441 149.06 82.5855 149.333 82.655 149.647C82.726 149.956 82.7102 150.282 82.6075 150.624C82.5049 150.965 82.3381 151.248 82.107 151.471C81.8759 151.695 81.6073 151.845 81.3011 151.922C80.995 151.999 80.6756 151.988 80.3431 151.888ZM85.0418 154.133L86.1077 154.454L88.185 151.085L88.0619 155.041L89.1278 155.361L92.0236 150.681L91.026 150.381L88.9336 153.924L89.0991 149.802L88.1357 149.513L85.9955 153.042L86.202 148.932L85.2044 148.632L85.0418 154.133ZM90.9891 155.92L91.9935 156.222L92.6909 155.239L94.6588 155.831L94.6925 157.033L95.7038 157.336L95.4769 151.718L94.2743 151.357L90.9891 155.92ZM93.2037 154.5L94.5657 152.57L94.6386 154.931L93.2037 154.5ZM96.8915 157.693L97.8208 157.972L98.3852 156.093L99.2598 156.356L99.7476 158.551L100.8 158.867L100.245 156.473C100.563 156.44 100.841 156.325 101.079 156.128C101.321 155.932 101.495 155.659 101.601 155.309C101.705 154.962 101.717 154.648 101.638 154.366C101.559 154.084 101.403 153.841 101.172 153.638C100.946 153.431 100.66 153.275 100.313 153.171L98.4207 152.603L96.8915 157.693ZM98.6315 155.273L99.1036 153.702L100.081 153.995C100.331 154.071 100.51 154.201 100.618 154.388C100.726 154.574 100.744 154.788 100.671 155.029C100.6 155.266 100.468 155.435 100.274 155.536C100.081 155.632 99.8592 155.642 99.6086 155.567L98.6315 155.273ZM102.03 159.237L103.69 159.736C104.228 159.897 104.728 159.928 105.19 159.828C105.656 159.73 106.056 159.523 106.39 159.206C106.724 158.889 106.965 158.482 107.114 157.985C107.265 157.484 107.287 157.012 107.182 156.568C107.079 156.12 106.861 155.729 106.529 155.396C106.198 155.058 105.762 154.808 105.22 154.645L103.559 154.146L102.03 159.237ZM103.206 158.696L104.242 155.245L104.994 155.471C105.34 155.575 105.617 155.735 105.825 155.952C106.038 156.17 106.176 156.43 106.239 156.732C106.304 157.029 106.283 157.353 106.178 157.704C106.073 158.055 105.91 158.339 105.691 158.556C105.476 158.775 105.22 158.916 104.923 158.981C104.625 159.046 104.303 159.026 103.957 158.922L103.206 158.696Z" fill="#18181B"/>
<path opacity="0.5" d="M36.8957 153.215L37.8249 153.494L38.3894 151.615L39.264 151.877L39.7518 154.073L40.8041 154.389L40.2494 151.995C40.5674 151.961 40.8453 151.846 41.0832 151.649C41.3257 151.454 41.4996 151.181 41.6049 150.83C41.7089 150.484 41.7213 150.17 41.6422 149.888C41.563 149.606 41.4075 149.363 41.1757 149.159C40.9498 148.952 40.6638 148.797 40.3176 148.693L38.4249 148.124L36.8957 153.215ZM38.6357 150.795L39.1078 149.223L40.0849 149.517C40.3355 149.592 40.5147 149.723 40.6226 149.909C40.7305 150.095 40.7482 150.309 40.6757 150.551C40.6045 150.788 40.4719 150.956 40.2778 151.057C40.085 151.153 39.8634 151.163 39.6128 151.088L38.6357 150.795ZM41.8088 154.69L42.1026 154.779C42.4397 154.88 42.7511 154.901 43.0367 154.843C43.327 154.786 43.5737 154.659 43.777 154.462C43.9848 154.266 44.1359 154.011 44.2303 153.697L45.2854 150.185L44.3493 149.904L43.2839 153.45C43.221 153.66 43.1043 153.808 42.9339 153.896C42.7694 153.981 42.5778 153.99 42.3592 153.925L42.0654 153.836L41.8088 154.69ZM47.1735 156.302L48.8339 156.801C49.3714 156.962 49.8711 156.993 50.3331 156.894C50.7997 156.795 51.1997 156.588 51.5333 156.271C51.8669 155.954 52.1083 155.547 52.2575 155.051C52.408 154.55 52.4307 154.077 52.3256 153.633C52.2219 153.185 52.0041 152.794 51.6721 152.461C51.3415 152.123 50.9051 151.873 50.3631 151.71L48.7027 151.212L47.1735 156.302ZM48.3491 155.761L49.3856 152.311L50.1372 152.536C50.4834 152.64 50.7606 152.801 50.9687 153.017C51.1814 153.235 51.3193 153.495 51.3825 153.797C51.4471 154.095 51.4267 154.419 51.3214 154.769C51.216 155.12 51.0537 155.404 50.8345 155.621C50.6198 155.84 50.3638 155.982 50.0662 156.046C49.7687 156.111 49.4469 156.091 49.1007 155.987L48.3491 155.761ZM52.8526 158.008L56.2348 159.024L56.4811 158.204L54.0281 157.467L54.4263 156.142L56.7427 156.838L56.989 156.018L54.6727 155.322L55.0647 154.017L57.5177 154.754L57.764 153.934L54.3818 152.918L52.8526 158.008ZM58.8971 159.824L59.9631 160.144L63.262 155.585L62.2507 155.281L59.7832 158.809L59.6611 154.503L58.6498 154.2L58.8971 159.824ZM62.9229 161.033L66.3052 162.049L66.5515 161.229L64.0985 160.492L64.4967 159.167L66.813 159.863L67.0593 159.043L64.743 158.347L65.135 157.042L67.588 157.779L67.8344 156.959L64.4521 155.943L62.9229 161.033ZM67.6077 162.441L70.7167 163.375L70.963 162.555L68.7833 161.9L70.0662 157.629L69.1369 157.35L67.6077 162.441ZM74.2885 164.537C74.6666 164.65 75.0372 164.69 75.4003 164.655C75.7634 164.62 76.1012 164.52 76.4138 164.356C76.7264 164.192 76.9967 163.97 77.2245 163.691C77.4584 163.408 77.6314 163.08 77.7436 162.707C77.8572 162.329 77.8935 161.96 77.8526 161.6C77.8163 161.241 77.7124 160.91 77.5407 160.605C77.3704 160.295 77.1434 160.026 76.8597 159.797C76.576 159.567 76.2451 159.396 75.867 159.282C75.4889 159.169 75.1183 159.13 74.7552 159.164C74.3921 159.199 74.0542 159.299 73.7417 159.463C73.435 159.625 73.1654 159.844 72.933 160.122C72.7051 160.401 72.5344 160.73 72.4208 161.108C72.3086 161.481 72.2699 161.85 72.3049 162.213C72.3458 162.573 72.4513 162.907 72.6216 163.217C72.7919 163.526 73.0189 163.795 73.3026 164.025C73.5863 164.254 73.915 164.425 74.2885 164.537ZM74.543 163.69C74.2151 163.591 73.9422 163.425 73.7245 163.19C73.5114 162.958 73.3701 162.684 73.3005 162.37C73.2309 162.056 73.2474 161.729 73.3501 161.387C73.4527 161.045 73.6188 160.765 73.8485 160.546C74.0796 160.322 74.3482 160.172 74.6544 160.095C74.9651 160.02 75.2845 160.031 75.6124 160.13C75.945 160.23 76.2178 160.396 76.4309 160.629C76.6441 160.862 76.7854 161.135 76.855 161.449C76.9259 161.758 76.9101 162.084 76.8075 162.426C76.7048 162.767 76.538 163.05 76.3069 163.273C76.0759 163.497 75.8073 163.647 75.5011 163.724C75.1949 163.801 74.8756 163.79 74.543 163.69ZM78.4254 165.69L79.3547 165.969L79.9192 164.09L80.8894 164.382C81.2356 164.486 81.5593 164.516 81.8604 164.472C82.163 164.424 82.4256 164.302 82.6485 164.106C82.8759 163.911 83.0402 163.645 83.1415 163.308C83.2455 162.962 83.2579 162.647 83.1787 162.365C83.0996 162.083 82.9441 161.84 82.7123 161.637C82.4864 161.43 82.2004 161.274 81.8542 161.17L79.9546 160.6L78.4254 165.69ZM80.1655 163.27L80.6376 161.699L81.6215 161.994C81.872 162.07 82.0513 162.201 82.1592 162.387C82.2671 162.573 82.2848 162.787 82.2122 163.029C82.1411 163.265 82.0084 163.434 81.8143 163.535C81.6216 163.631 81.3999 163.641 81.1494 163.566L80.1655 163.27ZM83.4773 167.208L84.4065 167.487L85.4657 163.961L86.3954 166.595L86.5048 166.627L88.7044 165.009L87.6658 168.466L88.6019 168.747L90.1311 163.657L89.2428 163.39L86.8996 165.189L85.8947 162.384L85.0065 162.117L83.4773 167.208ZM90.1973 169.227L93.5796 170.243L93.8259 169.423L91.3729 168.686L91.7711 167.36L94.0874 168.056L94.3337 167.236L92.0174 166.54L92.4094 165.235L94.8624 165.972L95.1088 165.152L91.7265 164.136L90.1973 169.227ZM94.8821 170.634L95.8114 170.913L96.811 167.585L98.2302 171.64L98.9614 171.859L100.491 166.769L99.5613 166.49L98.5801 169.756L97.1356 165.761L96.4113 165.543L94.8821 170.634ZM101.47 172.613L102.406 172.894L103.689 168.624L104.987 169.014L105.233 168.194L101.68 167.126L101.434 167.946L102.753 168.342L101.47 172.613ZM106.728 174.192L107.657 174.472L109.186 169.381L108.257 169.102L106.728 174.192ZM109.258 174.952L110.187 175.232L111.186 171.904L112.606 175.958L113.337 176.178L114.866 171.087L113.937 170.808L112.956 174.074L111.511 170.079L110.787 169.862L109.258 174.952ZM117.31 177.461C117.675 177.57 118.019 177.607 118.343 177.57C118.671 177.534 118.966 177.447 119.226 177.306C119.488 177.162 119.699 176.982 119.858 176.766L119.141 176.126C118.965 176.351 118.737 176.514 118.459 176.614C118.186 176.711 117.888 176.711 117.565 176.614C117.246 176.518 116.988 176.358 116.792 176.136C116.596 175.913 116.469 175.649 116.412 175.343C116.356 175.034 116.381 174.701 116.488 174.346C116.595 173.99 116.756 173.701 116.972 173.478C117.189 173.25 117.441 173.1 117.726 173.027C118.013 172.949 118.315 172.958 118.634 173.054C118.958 173.151 119.206 173.317 119.378 173.553C119.557 173.785 119.658 174.044 119.681 174.329L120.632 174.19C120.618 173.923 120.541 173.659 120.401 173.398C120.262 173.133 120.065 172.895 119.81 172.684C119.56 172.475 119.253 172.316 118.889 172.206C118.524 172.097 118.167 172.062 117.818 172.101C117.47 172.135 117.146 172.237 116.847 172.405C116.55 172.569 116.289 172.794 116.064 173.079C115.841 173.359 115.672 173.689 115.559 174.067C115.445 174.445 115.403 174.815 115.434 175.176C115.466 175.534 115.56 175.865 115.716 176.17C115.873 176.475 116.086 176.741 116.356 176.966C116.628 177.186 116.946 177.351 117.31 177.461Z" fill="#18181B"/>
<path d="M170.826 82.6192L172.257 83.0491L178.02 75.8409L176.598 75.414L170.826 82.6192Z" fill="#F43F5E"/>
<path d="M178.403 84.4619L179.754 84.868L180.575 82.1348L181.847 82.517L182.557 85.7099L184.087 86.1697L183.281 82.6875C183.743 82.6386 184.148 82.4711 184.494 82.185C184.846 81.9008 185.099 81.5037 185.252 80.9935C185.404 80.4899 185.422 80.033 185.307 79.6228C185.191 79.2126 184.965 78.8593 184.628 78.563C184.299 78.262 183.883 78.0359 183.38 77.8846L180.627 77.0576L178.403 84.4619ZM180.934 80.9422L181.62 78.6563L183.041 79.0832C183.406 79.1927 183.667 79.383 183.824 79.6541C183.98 79.9251 184.006 80.2363 183.901 80.5874C183.797 80.932 183.604 81.1774 183.322 81.3238C183.042 81.4635 182.719 81.4786 182.355 81.3691L180.934 80.9422ZM186.231 86.8135L187.692 87.2524L188.706 85.8234L191.568 86.6833L191.617 88.4317L193.088 88.8736L192.758 80.702L191.009 80.1765L186.231 86.8135ZM189.452 84.7472L191.433 81.94L191.539 85.3742L189.452 84.7472ZM195.776 89.6809L197.128 90.087L197.949 87.3539L199.221 87.736L199.93 90.9289L201.461 91.3887L200.654 87.9065C201.117 87.8576 201.521 87.6901 201.867 87.404C202.219 87.1199 202.472 86.7227 202.626 86.2125C202.777 85.7089 202.795 85.2521 202.68 84.8418C202.565 84.4316 202.339 84.0783 202.001 83.782C201.673 83.481 201.257 83.2549 200.753 83.1036L198 82.2766L195.776 89.6809ZM198.307 86.1612L198.994 83.8753L200.415 84.3023C200.779 84.4117 201.04 84.602 201.197 84.8731C201.354 85.1442 201.38 85.4553 201.274 85.8065C201.171 86.151 200.978 86.3964 200.695 86.5428C200.415 86.6825 200.093 86.6976 199.728 86.5882L198.307 86.1612ZM204.21 92.2147L209.13 93.6925L209.488 92.4999L205.92 91.4281L206.499 89.4999L209.869 90.5121L210.227 89.3194L206.858 88.3073L207.428 86.409L210.996 87.4809L211.354 86.2882L206.434 84.8103L204.21 92.2147ZM211.984 94.5501L215.105 95.4876C215.933 95.7364 216.639 95.7317 217.222 95.4735C217.814 95.2106 218.217 94.7247 218.43 94.0157C218.531 93.6778 218.56 93.3399 218.518 93.0019C218.475 92.6639 218.319 92.3392 218.052 92.0276C218.313 91.9038 218.524 91.7432 218.684 91.5458C218.851 91.3504 218.972 91.1268 219.048 90.875C219.243 90.2257 219.188 89.6528 218.882 89.1563C218.576 88.6599 218.058 88.3022 217.33 88.0832L214.209 87.1458L211.984 94.5501ZM214.698 90.4241L215.214 88.7047L217.053 89.257C217.331 89.3406 217.53 89.4835 217.65 89.6857C217.77 89.8878 217.791 90.1181 217.713 90.3765C217.636 90.6349 217.489 90.8221 217.274 90.9379C217.06 91.0472 216.815 91.06 216.536 90.9764L214.698 90.4241ZM213.694 93.7635L214.342 91.6068L216.251 92.18C216.602 92.2855 216.85 92.4685 216.996 92.729C217.15 92.9848 217.178 93.2784 217.078 93.6097C216.98 93.9344 216.796 94.1642 216.524 94.2993C216.261 94.4298 215.954 94.4422 215.603 94.3367L213.694 93.7635ZM220.72 97.1742L225.242 98.5326L225.6 97.34L222.43 96.3876L224.296 90.1759L222.944 89.7699L220.72 97.1742ZM231.397 100.512C231.947 100.677 232.486 100.734 233.014 100.683C233.542 100.633 234.034 100.488 234.489 100.249C234.943 100.009 235.336 99.6869 235.668 99.2808C236.008 98.8701 236.259 98.3931 236.423 97.8498C236.588 97.2998 236.641 96.7631 236.581 96.2396C236.529 95.7181 236.377 95.2356 236.128 94.7922C235.88 94.3421 235.55 93.9504 235.137 93.6169C234.724 93.2835 234.243 93.0341 233.693 92.8689C233.143 92.7037 232.604 92.6465 232.076 92.6973C231.548 92.7482 231.056 92.8931 230.602 93.1322C230.156 93.3666 229.764 93.6858 229.425 94.0899C229.094 94.496 228.846 94.974 228.68 95.524C228.517 96.0673 228.461 96.603 228.512 97.1312C228.571 97.6547 228.725 98.1415 228.973 98.5915C229.22 99.0415 229.55 99.4333 229.963 99.7667C230.376 100.1 230.854 100.349 231.397 100.512ZM231.767 99.2794C231.29 99.1361 230.893 98.894 230.577 98.5533C230.267 98.2146 230.061 97.8169 229.96 97.3603C229.859 96.9037 229.883 96.4269 230.032 95.93C230.181 95.4331 230.423 95.0253 230.757 94.7067C231.093 94.3814 231.484 94.1629 231.929 94.0511C232.381 93.9413 232.846 93.958 233.323 94.1013C233.807 94.2466 234.203 94.4886 234.513 94.8274C234.823 95.1661 235.029 95.5638 235.13 96.0204C235.233 96.4703 235.21 96.9438 235.061 97.4407C234.912 97.9377 234.669 98.3488 234.333 98.674C233.997 98.9992 233.606 99.2178 233.161 99.3296C232.716 99.4414 232.251 99.4247 231.767 99.2794ZM241.817 103.642C242.347 103.801 242.848 103.854 243.319 103.801C243.797 103.749 244.225 103.621 244.604 103.417C244.985 103.207 245.292 102.945 245.523 102.632L244.481 101.701C244.224 102.028 243.892 102.264 243.488 102.41C243.091 102.551 242.658 102.551 242.187 102.41C241.724 102.27 241.349 102.039 241.063 101.714C240.778 101.39 240.594 101.006 240.51 100.562C240.429 100.112 240.466 99.6278 240.621 99.111C240.776 98.5942 241.011 98.1735 241.325 97.8489C241.642 97.5177 242.007 97.2988 242.422 97.1923C242.839 97.0791 243.279 97.0922 243.743 97.2315C244.213 97.3729 244.574 97.6149 244.825 97.9575C245.085 98.2956 245.232 98.672 245.266 99.0869L246.649 98.8846C246.628 98.4956 246.516 98.1116 246.312 97.7325C246.11 97.3467 245.824 97.0007 245.454 96.6944C245.09 96.3901 244.643 96.1584 244.113 95.9991C243.583 95.8399 243.064 95.7887 242.556 95.8455C242.049 95.8957 241.579 96.0433 241.144 96.2883C240.711 96.5267 240.331 96.8532 240.005 97.2679C239.68 97.676 239.435 98.155 239.269 98.7049C239.104 99.2549 239.044 99.7929 239.088 100.319C239.134 100.839 239.271 101.32 239.499 101.765C239.727 102.209 240.037 102.594 240.43 102.922C240.825 103.243 241.287 103.483 241.817 103.642ZM247.935 105.35L249.286 105.756L249.91 103.679L251.259 102.794L252.268 106.651L253.858 107.129L252.515 101.969L255.993 99.6979L254.293 99.1874L250.522 101.641L251.511 98.3514L250.159 97.9454L247.935 105.35ZM259.054 108.82C259.565 108.973 260.04 109.015 260.48 108.945C260.92 108.875 261.298 108.71 261.614 108.451C261.93 108.192 262.152 107.851 262.279 107.427C262.576 106.44 262.191 105.58 261.125 104.848L259.892 104.012C259.653 103.846 259.487 103.666 259.393 103.472C259.309 103.273 259.297 103.071 259.359 102.865C259.44 102.594 259.609 102.406 259.864 102.302C260.128 102.193 260.432 102.191 260.776 102.294C261.161 102.41 261.468 102.614 261.698 102.907C261.929 103.193 262.063 103.544 262.097 103.959L263.359 103.796C263.328 103.18 263.114 102.628 262.719 102.141C262.33 101.656 261.801 101.313 261.132 101.112C260.648 100.966 260.19 100.93 259.756 101.002C259.331 101.069 258.964 101.233 258.655 101.494C258.352 101.757 258.137 102.101 258.009 102.525C257.864 103.009 257.883 103.473 258.067 103.918C258.253 104.357 258.607 104.756 259.127 105.115L260.411 105.999C260.644 106.163 260.802 106.333 260.886 106.51C260.977 106.689 260.989 106.888 260.924 107.106C260.842 107.378 260.667 107.564 260.399 107.664C260.137 107.766 259.83 107.764 259.479 107.658C259.055 107.531 258.71 107.297 258.444 106.957C258.18 106.611 258.022 106.198 257.97 105.721L256.701 105.87C256.71 106.321 256.81 106.745 257.002 107.142C257.201 107.534 257.474 107.876 257.82 108.168C258.173 108.461 258.584 108.679 259.054 108.82Z" fill="#18181B"/>
<defs>
<filter id="filter0_f_0_99" x="89.6455" y="127.604" width="298.765" height="230.261" filterUnits="userSpaceOnUse" color-interpolation-filters="sRGB">
<feFlood flood-opacity="0" result="BackgroundImageFix"/>
<feBlend mode="normal" in="SourceGraphic" in2="BackgroundImageFix" result="shape"/>
<feGaussianBlur stdDeviation="21.1296" result="effect1_foregroundBlur_0_99"/>
</filter>
<filter id="filter1_f_0_99" x="-105.894" y="-35.605" width="475.734" height="475.734" filterUnits="userSpaceOnUse" color-interpolation-filters="sRGB">
<feFlood flood-opacity="0" result="BackgroundImageFix"/>
<feBlend mode="normal" in="SourceGraphic" in2="BackgroundImageFix" result="shape"/>
<feGaussianBlur stdDeviation="91.763" result="effect1_foregroundBlur_0_99"/>
</filter>
<filter id="filter2_f_0_99" x="111.81" y="44.9891" width="475.734" height="475.734" filterUnits="userSpaceOnUse" color-interpolation-filters="sRGB">
<feFlood flood-opacity="0" result="BackgroundImageFix"/>
<feBlend mode="normal" in="SourceGraphic" in2="BackgroundImageFix" result="shape"/>
<feGaussianBlur stdDeviation="91.763" result="effect1_foregroundBlur_0_99"/>
</filter>
<filter id="filter3_f_0_99" x="-8.91965" y="0.0837975" width="316.816" height="256.727" filterUnits="userSpaceOnUse" color-interpolation-filters="sRGB">
<feFlood flood-opacity="0" result="BackgroundImageFix"/>
<feBlend mode="normal" in="SourceGraphic" in2="BackgroundImageFix" result="shape"/>
<feGaussianBlur stdDeviation="22.7007" result="effect1_foregroundBlur_0_99"/>
</filter>
<filter id="filter4_d_0_99" x="-21.3789" y="12.5314" width="342.353" height="284.555" filterUnits="userSpaceOnUse" color-interpolation-filters="sRGB">
<feFlood flood-opacity="0" result="BackgroundImageFix"/>
<feColorMatrix in="SourceAlpha" type="matrix" values="0 0 0 0 0 0 0 0 0 0 0 0 0 0 0 0 0 0 127 0" result="hardAlpha"/>
<feOffset dy="27.5289"/>
<feGaussianBlur stdDeviation="19.882"/>
<feComposite in2="hardAlpha" operator="out"/>
<feColorMatrix type="matrix" values="0 0 0 0 0.1375 0 0 0 0 0.155242 0 0 0 0 0.4125 0 0 0 0.08 0"/>
<feBlend mode="normal" in2="BackgroundImageFix" result="effect1_dropShadow_0_99"/>
<feBlend mode="normal" in="SourceGraphic" in2="effect1_dropShadow_0_99" result="shape"/>
</filter>
<filter id="filter5_f_0_99" x="-193.419" y="-215.224" width="511.121" height="511.121" filterUnits="userSpaceOnUse" color-interpolation-filters="sRGB">
<feFlood flood-opacity="0" result="BackgroundImageFix"/>
<feBlend mode="normal" in="SourceGraphic" in2="BackgroundImageFix" result="shape"/>
<feGaussianBlur stdDeviation="98.5859" result="effect1_foregroundBlur_0_99"/>
</filter>
<filter id="filter6_f_0_99" x="-19.6009" y="-36.3674" width="511.121" height="511.121" filterUnits="userSpaceOnUse" color-interpolation-filters="sRGB">
<feFlood flood-opacity="0" result="BackgroundImageFix"/>
<feBlend mode="normal" in="SourceGraphic" in2="BackgroundImageFix" result="shape"/>
<feGaussianBlur stdDeviation="98.5859" result="effect1_foregroundBlur_0_99"/>
</filter>
<linearGradient id="paint0_linear_0_99" x1="345.064" y1="342.65" x2="543.381" y2="342.65" gradientUnits="userSpaceOnUse">
<stop stop-color="#4484FF"/>
<stop offset="0.234375" stop-color="#44B0FF"/>
<stop offset="0.489583" stop-color="#FF44EC"/>
<stop offset="0.739583" stop-color="#44A5FF"/>
<stop offset="1" stop-color="#F2FF5E"/>
</linearGradient>
<linearGradient id="paint1_linear_0_99" x1="270.724" y1="326.793" x2="114.365" y2="178.282" gradientUnits="userSpaceOnUse">
<stop offset="0.507336"/>
<stop offset="1" stop-opacity="0"/>
</linearGradient>
<linearGradient id="paint2_linear_0_99" x1="160.97" y1="233.76" x2="166.902" y2="272.152" gradientUnits="userSpaceOnUse">
<stop stop-color="#F3EC58"/>
<stop offset="0.4" stop-color="#F6CA45"/>
<stop offset="0.77" stop-color="#F9B036"/>
<stop offset="1" stop-color="#FAA631"/>
</linearGradient>
<linearGradient id="paint3_linear_0_99" x1="67.7435" y1="101.741" x2="269.714" y2="101.741" gradientUnits="userSpaceOnUse">
<stop stop-color="#44BCFF"/>
<stop offset="0.234375" stop-color="#44B0FF"/>
<stop offset="0.489583" stop-color="#FF44EC"/>
<stop offset="0.739583" stop-color="#FF44EC"/>
<stop offset="1" stop-color="#FF675E"/>
</linearGradient>
<linearGradient id="paint4_linear_0_99" x1="218.61" y1="170.909" x2="50.6245" y2="11.3553" gradientUnits="userSpaceOnUse">
<stop offset="0.507336" stop-color="white"/>
<stop offset="1" stop-color="white" stop-opacity="0"/>
</linearGradient>
<linearGradient id="paint5_linear_0_99" x1="75.6887" y1="84.2922" x2="63.6809" y2="124.264" gradientUnits="userSpaceOnUse">
<stop stop-color="#F3EC58"/>
<stop offset="0.4" stop-color="#F6CA45"/>
<stop offset="0.77" stop-color="#F9B036"/>
<stop offset="1" stop-color="#FAA631"/>
</linearGradient>
</defs>
</svg>
