<svg width="25" height="17" viewBox="0 0 25 17" fill="none" xmlns="http://www.w3.org/2000/svg">
<path d="M23.6806 7.50012H1.31944C0.590735 7.50012 0 7.92545 0 8.45012V8.55012C0 9.07479 0.590735 9.50012 1.31944 9.50012H23.6806C24.4093 9.50012 25 9.07479 25 8.55012V8.45012C25 7.92545 24.4093 7.50012 23.6806 7.50012Z" fill="#18181B"/>
<path d="M23.6806 15.0003H1.31944C0.590735 15.0003 0 15.4256 0 15.9503V16.0503C0 16.5749 0.590735 17.0003 1.31944 17.0003H23.6806C24.4093 17.0003 25 16.5749 25 16.0503V15.9503C25 15.4256 24.4093 15.0003 23.6806 15.0003Z" fill="#18181B"/>
<path d="M23.6806 0H1.31944C0.590735 0 0 0.425329 0 0.95V1.05C0 1.57467 0.590735 2 1.31944 2H23.6806C24.4093 2 25 1.57467 25 1.05V0.95C25 0.425329 24.4093 0 23.6806 0Z" fill="#18181B"/>
</svg>
